# xmcd
#
# Track frame offsets: 
#        150
#        14513
#        31683
#        45849
#        60470
#        77948
#        96892
#        112486
#        127693
#        144799
#        161442
#        177074
#        204521
#
# Disc length: 3125 seconds
#
# Revision: 0
# Processed by: cddbd v1.5.2PL0 Copyright (c) Steve Scherf et al.
# Submitted via: ExactAudioCopy v0.99pb3
#
DISCID=9b0c330d
DTITLE=Mathieu Edward - Entre toi et moi
DYEAR=2008
DGENRE=Rap
TTITLE0=Entre toi et moi
TTITLE1=Comme avant - En duo avec Sheryfa Luna
TTITLE2=Malgre moi
TTITLE3=Tu n'es qu'un gosse
TTITLE4=Ne vous oubliez pas
TTITLE5=Mon combat
TTITLE6=Get up - Featuring Jango Jack
TTITLE7=C'est auch
TTITLE8=D'ou je viens
TTITLE9=Secret d'une femme meurtrie
TTITLE10=Laissons nous aller
TTITLE11=Si j'avais pu
TTITLE12=Data
EXTD=
EXTT0=
EXTT1=
EXTT2=
EXTT3=
EXTT4=
EXTT5=
EXTT6=
EXTT7=
EXTT8=
EXTT9=
EXTT10=
EXTT11=
EXTT12=
PLAYORDER=
